<?xml version="1.0" encoding="utf-8"?>
<!-- Generator: Adobe Illustrator 27.5.0, SVG Export Plug-In . SVG Version: 6.00 Build 0)  -->
<svg version="1.1" id="Layer_1" xmlns="http://www.w3.org/2000/svg" xmlns:xlink="http://www.w3.org/1999/xlink" x="0px" y="0px"
	 viewBox="0 0 560 317.5" style="enable-background:new 0 0 560 317.5;" xml:space="preserve">
<style type="text/css">
	.st0{fill:#192542;}
	.st1{fill:#DADADA;}
	.st2{fill:#59653F;}
</style>
<path class="st0" d="M560,155l-92.8-62.2l32.4-49.8l-72.9,28.6L428.9,0L280,22.1L131.1,0l2.3,71.8L60.5,43l32.4,49.8L0,155
	l107.8,43.2l-5,74.9l9.5,1.7c2.7,0.5,46,8.4,95.3,13.6c21.9,13.4,46.4,23.9,71.4,29l1,0.2l1-0.2c25-5,49.6-15.6,71.4-29
	c49.2-5.2,92.6-13.1,95.3-13.6l9.5-1.7l-5-74.9L560,155z"/>
<path class="st1" d="M442,207.9c0,0-66.5,18.7-162,18.7s-162-18.7-162-18.7l-3.7,56.2c0,0,96.5,17.8,165.8,17.8
	s165.8-17.8,165.8-17.8L442,207.9z"/>
<path class="st0" d="M131.3,248.9l3-18.8l3.5-2.5l6.7,1.1l2.5,3.5l-0.8,5.2l-4.6-0.7l0.5-3.3l-0.9-1.2l-1.4-0.2l-1.2,0.9l-2.4,15.3
	l0.9,1.2l1.4,0.2l1.2-0.8l0.6-3.5l4.6,0.7l-0.8,5.2l-3.5,2.5l-6.7-1.1L131.3,248.9L131.3,248.9z"/>
<path class="st0" d="M146.8,254.5l3.8-24.9l4.4,0.7l-3.8,24.9L146.8,254.5z"/>
<path class="st0" d="M157.4,230.6l4.7,0.7l-0.7,21.4l5.4-20.7l4.4,0.6l-7.1,24.5l-6.8-1L157.4,230.6L157.4,230.6z"/>
<path class="st0" d="M170.4,257.9l3.3-25l4.4,0.6l-3.3,25L170.4,257.9z"/>
<path class="st0" d="M181.9,233.9l4.7,0.6l-2.6,20.9l5.4,0.7l-0.5,4.1l-10-1.3L181.9,233.9L181.9,233.9z"/>
<path class="st0" d="M191.7,260.6l2.9-25l4.4,0.5l-2.9,25L191.7,260.6z"/>
<path class="st0" d="M205.4,252.4l3.1,0.3l-0.2-12.6L205.4,252.4z M205.3,236.8l6.8,0.7l1.2,25.5l-4.6-0.5l-0.1-5.9l-4.1-0.4
	l-1.3,5.7l-4.4-0.5L205.3,236.8z M218.2,238.1l4,0.4l4,15.3l1.3-14.9l4.1,0.4l-2.3,25.1l-4-0.4l-3.9-15.6l-1.4,15.1l-4.1-0.4
	L218.2,238.1L218.2,238.1z M247.6,261.8l1.1-1l0.9-15.3l-1-1.1l-2.8-0.2l-1.1,17.4L247.6,261.8z M241.4,240.1l10.1,0.6l2.9,3.2
	l-1.2,19l-3.2,2.9l-10.1-0.6L241.4,240.1z M257.8,241l11.1,0.4l-0.1,4.1l-6.4-0.2l-0.2,6.2l5.8,0.2l-0.1,4.1l-5.8-0.2l-0.2,6.6
	l6.4,0.2l-0.1,4.1l-11.1-0.4L257.8,241L257.8,241z M272,241.5l10.8,0.1l0,4.1l-6.1,0l0,6.8l5.5,0l0,4.1l-5.5,0l-0.1,10.2l-4.7,0
	L272,241.5z M285.4,241.5l11.1-0.3l0.1,4.1l-6.4,0.2l0.2,6.2l5.8-0.2l0.1,4.1l-5.8,0.2l0.2,6.7l6.4-0.2l0.1,4.1l-11.1,0.3
	L285.4,241.5L285.4,241.5z M299.5,241.1l4-0.2l6.1,14.6l-0.8-14.9l4.2-0.2l1.4,25.2l-4,0.2l-6.1-14.9L305,266l-4.2,0.2L299.5,241.1
	L299.5,241.1z M317.3,262.3l-0.3-4.5l4.7-0.4l0.2,2.7l1.1,0.9l1.7-0.1l0.9-1.1l-0.4-4.9l-0.9-0.7l-4.9,0.4l-2.8-2.4l-0.7-8.9
	l2.8-3.3l6.8-0.5l3.3,2.8l0.3,4.5l-4.7,0.4l-0.2-2.6l-1.1-1l-1.5,0.1l-1,1.1l0.4,4.7l0.9,0.7l5-0.4l2.8,2.4l0.7,9.1l-2.8,3.3l-7,0.5
	L317.3,262.3L317.3,262.3z M331.6,238.9l11-1l0.4,4.1l-6.3,0.6l0.6,6.2l5.7-0.5l0.4,4.1l-5.7,0.5l0.6,6.6l6.4-0.6l0.4,4.1l-11.1,1
	L331.6,238.9L331.6,238.9z M352.2,236.8l10.7-1.2l0.5,4.1l-6.1,0.7l0.8,6.7l5.5-0.6l0.5,4.1l-5.5,0.6l1.1,10.1l-4.7,0.5L352.2,236.8
	z M375.5,255.6l0.9-1.2l-1.9-15.2l-1.1-0.9l-1.8,0.2l-0.9,1.2l1.9,15.2l1.1,0.9L375.5,255.6z M368.1,257.3l-2.4-18.9l2.7-3.4
	l7.1-0.9l3.4,2.7l2.4,18.9l-2.7,3.4l-7.1,0.9L368.1,257.3z M391.1,243.4l0.9-1.2l-0.8-5.5l-1.2-0.9l-3.1,0.4l1.1,7.6L391.1,243.4z
	 M381.8,233.2l10.4-1.4l3.5,2.6l1.2,8.8l-2.2,2.8l4.3,10.3l-4.7,0.7l-3.9-9.9l-1.8,0.2l1.4,10.2l-4.7,0.6L381.8,233.2z M401.3,252.9
	l-2.8-18.9l2.6-3.5l6.7-1l3.5,2.6l0.8,5.2l-4.6,0.7l-0.5-3.3l-1.2-0.9l-1.4,0.2l-0.9,1.2l2.3,15.3l1.2,0.9l1.4-0.2l0.9-1.2l-0.5-3.5
	l4.6-0.7l0.8,5.2l-2.6,3.5l-6.7,1L401.3,252.9L401.3,252.9z M413.7,228.6l10.9-1.8l0.7,4.1l-6.3,1l1,6.1l5.7-0.9l0.7,4.1l-5.7,0.9
	l1.1,6.6l6.4-1l0.7,4.1l-11,1.8L413.7,228.6z"/>
<path class="st2" d="M410.5,199.3c1.6,1.1,3.4,2.1,5.3,2.8l123.6-49.4l-47.4-32.5l-1.3-0.9l-101.1,40.1
	C391.6,178.4,398.2,190.7,410.5,199.3 M170.6,159.5L69.4,119.3l-1.3,0.9l-47.4,32.5l123.5,49.4c1.9-0.7,3.7-1.7,5.3-2.8
	C161.8,190.7,168.4,178.4,170.6,159.5 M280,297.2c-5.8-1.3-11.6-2.9-17.3-4.7c-9.7-0.3-19.6-0.9-29.6-1.7
	C248,298,263.8,303.5,280,307c16.2-3.5,32-8.9,46.9-16.3c-10,0.8-19.9,1.4-29.6,1.7C291.6,294.3,285.8,295.9,280,297.2 M153.3,70.4
	l-1.5-47.2l128.2,19l128.2-19l-1.5,47.2c-5.3,4.7-10.4,9.8-15.1,15.1l22.5-8.8c0.7-0.6,1.4-1.3,2.1-1.9l2-62.8L280,32.5l-0.8-0.1
	L141.8,12l2,62.8c0.7,0.7,1.5,1.3,2.2,2l22.5,8.9C163.8,80.3,158.7,75.2,153.3,70.4"/>
<path class="st2" d="M380.8,100.3l16.2-6.4c5.3-6.2,11-11.9,17.1-17.3l-22.5,8.8C387.6,90.1,383.9,95,380.8,100.3 M168.5,85.7
	l-22.5-8.9c6.1,5.3,11.8,11.1,17,17.3l16.2,6.4C176.2,95.2,172.6,90.3,168.5,85.7 M179.3,100.5l-16.2-6.4c6,7.1,10.8,15.3,14,24
	c1.3-4.5,2.8-8.8,4.7-13.1C181,103.4,180.2,101.9,179.3,100.5"/>
<path class="st2" d="M378.2,105c1.8,4.3,3.4,8.6,4.7,13.1c3.3-8.8,8.1-17,14.2-24.1l-16.2,6.4C379.9,101.8,379,103.4,378.2,105
	 M177.4,177.4c-3.7,11.8-9.9,20.9-18.8,28.1c3.8,0.7,7.8,1.3,12.1,2c4.8-4.9,8.7-10.5,11.7-16.7C180.4,186.4,178.7,182,177.4,177.4
	 M382.6,177.4c-1.3,4.6-3,9-4.9,13.4c3,6.1,6.9,11.8,11.7,16.7c4.3-0.7,8.3-1.3,12.1-2C392.5,198.3,386.3,189.2,382.6,177.4
	 M222.4,83.9l3.1,3.1c31.9-25,76.7-25.5,109.1-1.1l3.1-3.1C303.5,56.7,256,57.2,222.4,83.9 M218.5,92.8l-3.1-3.1
	c-2.8,3.6-5.3,7.5-7.5,11.5l4.1,1.6C213.9,99.3,216.1,96,218.5,92.8 M212,102.8l-4.1-1.6c-1.6,2.9-3,5.8-4.3,8.9l4,1.6
	C208.9,108.6,210.4,105.6,212,102.8 M204.5,172.9c-1.1-3.6-2-7.3-2.6-11l-4.7-1.9c0.5,3.7,1.3,7.3,2.2,10.9L204.5,172.9z"/>
<path class="st2" d="M207.6,111.6l-4-1.6c-6.6,15.8-8.9,33-6.4,49.9l4.7,1.9C198.9,144.9,200.9,127.5,207.6,111.6 M216.6,205l3-3.1
	c-6.8-8.6-11.9-18.4-15.1-28.9l-5.1-2C202.7,183.3,208.5,194.9,216.6,205 M343.7,89.7l-3.1,3.1c2.5,3.2,4.7,6.5,6.8,10l4.1-1.6
	C349.2,97.2,346.6,93.3,343.7,89.7 M355.9,110c-1.3-3-2.8-6-4.5-8.8l-4.1,1.6c1.7,2.8,3.2,5.8,4.5,8.8L355.9,110z M355.9,172.8l5-2
	c0.9-3.6,1.6-7.3,2.1-11l-4.6,1.9C357.8,165.4,357,169.1,355.9,172.8"/>
<path class="st2" d="M358.4,161.6l4.6-1.9c2.2-16.9-0.3-34.1-7.1-49.7l-4,1.6C358.8,127.3,361.1,144.7,358.4,161.6 M341.2,201.9
	l3.1,3.1c7.8-10.1,13.5-21.8,16.6-34.2l-5,2C352.9,183.3,347.9,193.2,341.2,201.9"/>
<path class="st1" d="M139.5,84.8l-54-21.3l20.9,32.1l-25.2,17.3l90.2,36.6c0.1-1.6,0.1-3.3,0.1-5.1
	C171.3,115.1,154.3,98.2,139.5,84.8 M453.7,95.5l20.9-32.1l-53.9,21.2c-14.8,13.4-32,30.4-32,59.8c0,1.7,0,3.3,0.1,4.9l90.2-36.5
	L453.7,95.5z M344,75.3l3.6-3.7c-40-30.5-95.7-30-135.1,1.4l3.7,3.6C253.5,47.2,306,46.7,344,75.3 M188.8,166.7
	c-3.9-20.2-1.9-41.1,5.9-60.2c1.2-3,2.6-6,4.2-8.9c2.6-5,5.6-9.7,9-14.2l-3.7-3.6c-3.8,5-7.2,10.3-10.1,15.9
	c-1.5,2.9-2.9,5.9-4.1,8.9c-1.4,3.4-2.6,6.9-3.7,10.5c-3.7,12.5-5.2,25.6-4.3,38.7c0.2,3.6,0.6,7.1,1.2,10.7
	c2.8,17.1,9.6,33.3,19.9,47.2c0.8,1.1,1.6,2.2,2.5,3.3l2.7-2.7l0.9-0.9c-9.8-12.4-16.6-26.9-20-42.4
	C189.1,168.2,188.9,167.5,188.8,166.7 M369.5,104.7c-1.3-3-2.7-6-4.3-8.9c-3-5.6-6.5-11-10.5-16l-3.6,3.6c3.5,4.5,6.6,9.3,9.3,14.3
	c1.6,2.9,3,5.9,4.3,8.9c8.1,18.9,10.4,39.8,6.7,60c-0.2,1-0.4,2-0.6,3.1c-3.2,15.2-9.7,29.4-19.1,41.7l0.8,0.8l2.9,2.8
	c0.9-1.1,1.7-2.3,2.5-3.4c10-14,16.5-30.2,19.1-47.2c0.5-3.6,0.9-7.2,1.1-10.8C379,136.9,376.1,120.1,369.5,104.7 M242.3,114.7v75
	c-1.1-1-2.2-2-3.2-3.1c-3.4-3.5-6.2-7.4-8.6-11.7V98.6c-4.9,5.1-9,10.9-12.2,17.2c-0.3,0.7-0.7,1.3-1,2v58.8
	c0.3,0.6,0.6,1.2,0.9,1.8c7.8,15.6,21.1,27.7,37.3,34.1V82c-4.6,1.8-9.1,4.1-13.2,6.9L242.3,114.7z M262.3,79.7v135.2
	c1.1,0.3,2.2,0.5,3.3,0.7c4.9,1.1,9.9,1.6,14.8,1.7c5.4,0.2,10.9-0.4,16.2-1.7c1-0.3,1.9-0.6,2.9-0.9v-49.8h-13.2v39.3
	c-1.8,0.2-3.8,0.2-5.8,0.2c-1.7,0-3.3,0-4.9-0.2v-51h23.9v-13h-23.9V90.4c1.6-0.1,3.2-0.2,4.9-0.2c1.9,0,3.9,0.1,5.8,0.3v40.9h13.2
	V79.9C287.3,76.6,274.4,76.5,262.3,79.7 M319.4,140.3v-35.6c2.4,2,4.5,4.2,6.4,6.6c2.1,2.6,4,5.4,5.6,8.3c2.1,3.7,3.8,7.6,5,11.7
	h12.4c-2-8.9-5.8-17.3-11.1-24.8c-8-11.1-18.9-19.6-31.6-24.5v130.4c16.5-6.4,30-18.9,37.6-34.9c1.8-3.8,3.3-7.8,4.5-11.9
	c0.1-0.2,0.1-0.5,0.2-0.7h-12.9c-0.9,2.4-1.9,4.8-3,7.1c-2.5,5-5.7,9.6-9.5,13.7c-1.2,1.3-2.4,2.5-3.6,3.6v-36.1h31.1
	c0.2-2.1,0.3-4,0.3-6.1c0-2.3-0.1-4.6-0.4-6.9L319.4,140.3z"/>
</svg>
